<?xml version="1.0" standalone="no"?>
<!DOCTYPE svg PUBLIC "-//W3C//DTD SVG 20010904//EN"
 "http://www.w3.org/TR/2001/REC-SVG-20010904/DTD/svg10.dtd">
<svg version="1.0" xmlns="http://www.w3.org/2000/svg"
 width="512.000000pt" height="512.000000pt" viewBox="0 0 512.000000 512.000000"
 preserveAspectRatio="xMidYMid meet">

<g transform="translate(0.000000,512.000000) scale(0.100000,-0.100000)"
fill="#000000" stroke="none">
<path d="M3827 3606 c-46 -17 -64 -31 -85 -70 -15 -28 -17 -85 -20 -533 l-3
-503 -899 0 -900 0 -2 334 -3 333 -523 -403 c-288 -221 -526 -404 -528 -407
-3 -3 233 -187 523 -411 l528 -406 3 330 2 330 987 0 c976 0 987 0 1029 21 31
15 48 32 64 63 20 43 20 53 18 639 -3 584 -3 596 -24 623 -45 62 -104 82 -167
60z"/>
</g>
</svg>
