<?xml version="1.0" standalone="no"?>
<!DOCTYPE svg PUBLIC "-//W3C//DTD SVG 20010904//EN"
 "http://www.w3.org/TR/2001/REC-SVG-20010904/DTD/svg10.dtd">
<svg version="1.0" xmlns="http://www.w3.org/2000/svg"
 width="880.000000pt" height="497.000000pt" viewBox="0 0 880.000000 497.000000"
 preserveAspectRatio="xMidYMid meet">

<g transform="translate(0.000000,497.000000) scale(0.100000,-0.100000)"
fill="#000000" stroke="none">
<path d="M2930 3984 c-2223 -1313 -2520 -1489 -2520 -1494 0 -3 370 -224 823
-492 2238 -1322 2655 -1568 2670 -1574 16 -6 17 38 17 630 l0 636 2240 0 2240
0 0 800 0 800 -2240 0 -2240 0 0 635 c0 349 -3 635 -8 635 -4 0 -446 -259
-982 -576z m670 -539 l0 -475 2240 0 2240 0 0 -480 0 -480 -2240 0 -2240 0 -2
-480 -3 -480 -140 78 c-77 44 -462 260 -855 482 -393 221 -903 508 -1132 638
-230 129 -418 237 -418 241 0 3 350 203 778 443 427 240 998 561 1267 712 270
152 493 276 498 276 4 0 7 -214 7 -475z"/>
</g>
</svg>
