<?xml version="1.0" standalone="no"?>
<!DOCTYPE svg PUBLIC "-//W3C//DTD SVG 20010904//EN"
 "http://www.w3.org/TR/2001/REC-SVG-20010904/DTD/svg10.dtd">
<svg version="1.0" xmlns="http://www.w3.org/2000/svg"
 width="512.000000pt" height="512.000000pt" viewBox="0 0 512.000000 512.000000"
 preserveAspectRatio="xMidYMid meet">

<g transform="translate(0.000000,512.000000) scale(0.100000,-0.100000)"
fill="#000000" stroke="none">
<path d="M2513 4790 c-12 -5 -283 -336 -603 -735 -563 -704 -580 -726 -580
-768 0 -44 19 -77 57 -96 14 -7 113 -11 292 -11 l271 0 0 -1397 c0 -1310 2
-1399 18 -1419 9 -12 27 -27 39 -33 15 -8 181 -11 553 -11 372 0 538 3 553 11
12 6 30 21 39 33 16 20 18 109 18 1418 l0 1397 281 3 281 3 29 33 c22 24 29
42 29 72 0 38 -22 68 -387 523 -213 265 -472 588 -576 717 -103 129 -200 243
-215 252 -29 19 -64 22 -99 8z m528 -867 l420 -523 -201 0 c-151 0 -209 -4
-235 -14 -70 -29 -65 76 -65 -1466 l0 -1390 -400 0 -400 0 0 1390 c0 1547 5
1436 -67 1467 -30 12 -69 13 -236 7 -130 -4 -198 -3 -196 3 2 5 204 260 449
567 l445 556 33 -37 c18 -21 222 -273 453 -560z"/>
</g>
</svg>
