<?xml version="1.0" standalone="no"?>
<!DOCTYPE svg PUBLIC "-//W3C//DTD SVG 20010904//EN"
 "http://www.w3.org/TR/2001/REC-SVG-20010904/DTD/svg10.dtd">
<svg version="1.0" xmlns="http://www.w3.org/2000/svg"
 width="474.000000pt" height="474.000000pt" viewBox="0 0 474.000000 474.000000"
 preserveAspectRatio="xMidYMid meet">

<g transform="translate(0.000000,474.000000) scale(0.100000,-0.100000)"
fill="#000000" stroke="none">
<path d="M4440 3555 l0 -1185 150 0 150 0 0 1185 0 1185 -150 0 -150 0 0
-1185z"/>
<path d="M3260 4215 l0 -365 -1630 0 -1630 0 0 -295 0 -295 1630 0 1630 0 0
-372 0 -373 515 517 c283 284 515 520 515 525 0 10 -1012 1023 -1023 1023 -4
0 -7 -164 -7 -365z"/>
<path d="M0 1185 l0 -1185 150 0 150 0 0 1185 0 1185 -150 0 -150 0 0 -1185z"/>
<path d="M963 1704 c-282 -282 -513 -516 -513 -520 0 -10 1012 -1024 1022
-1024 5 0 8 164 8 365 l0 365 1630 0 1630 0 0 295 0 295 -1630 0 -1630 0 -2
368 -3 369 -512 -513z"/>
</g>
</svg>
